<?xml version="1.0" standalone="no"?>
<!DOCTYPE svg PUBLIC "-//W3C//DTD SVG 20010904//EN"
 "http://www.w3.org/TR/2001/REC-SVG-20010904/DTD/svg10.dtd">
<svg version="1.0" xmlns="http://www.w3.org/2000/svg"
 width="60px" height="60px" viewBox="0 0 512.000000 512.000000"
 preserveAspectRatio="xMidYMid meet">

<g transform="translate(0.000000,512.000000) scale(0.100000,-0.100000)"
fill="#000000" stroke="none">
<path d="M1855 4400 l80 -80 1075 0 1075 0 55 -26 c68 -31 114 -74 148 -139
l27 -50 5 -387 c5 -382 5 -388 27 -409 29 -29 77 -29 106 0 22 21 22 27 25
369 2 217 -1 371 -8 412 -23 137 -122 275 -239 335 -111 56 -89 55 -1321 55
l-1135 0 80 -80z"/>
<path d="M3639 3110 c-101 -17 -202 -95 -243 -188 l-20 -43 72 -72 72 -72 0
56 c0 65 24 109 80 147 l34 23 491 -3 492 -3 35 -27 c71 -54 68 -23 68 -745
l0 -648 80 -80 80 -80 0 716 c0 794 0 789 -65 884 -19 28 -56 64 -82 82 -89
60 -119 63 -608 62 -242 -1 -461 -5 -486 -9z"/>
</g>
</svg>
