<?xml version="1.0" standalone="no"?><svg xmlns="http://www.w3.org/2000/svg" viewBox="0 0 1440 320"><path fill="#0099ff" fill-opacity="1" d="M0,32L30,74.7C60,117,120,203,180,208C240,213,300,139,360,138.7C420,139,480,213,540,224C600,235,660,181,720,176C780,171,840,213,900,192C960,171,1020,85,1080,85.3C1140,85,1200,171,1260,197.3C1320,224,1380,192,1410,176L1440,160L1440,0L1410,0C1380,0,1320,0,1260,0C1200,0,1140,0,1080,0C1020,0,960,0,900,0C840,0,780,0,720,0C660,0,600,0,540,0C480,0,420,0,360,0C300,0,240,0,180,0C120,0,60,0,30,0L0,0Z" data-darkreader-inline-fill="" style="--darkreader-inline-fill:#007acc;"></path></svg>